<?xml version="1.0" encoding="UTF-8" standalone="no"?>
<!-- Created with Inkscape (http://www.inkscape.org/) -->
<svg xmlns:dc="http://purl.org/dc/elements/1.1/" xmlns:cc="http://creativecommons.org/ns#" xmlns:rdf="http://www.w3.org/1999/02/22-rdf-syntax-ns#" xmlns:svg="http://www.w3.org/2000/svg" xmlns="http://www.w3.org/2000/svg" xmlns:sodipodi="http://sodipodi.sourceforge.net/DTD/sodipodi-0.dtd" xmlns:inkscape="http://www.inkscape.org/namespaces/inkscape" width="270.94965mm" height="124.74815mm" viewBox="0 0 960.0578 442.02099" id="svg2" version="1.1" inkscape:version="0.91 r13725" sodipodi:docname="Alternative-fuer-Deutschland-Logo-2013.svg">
  <defs id="defs4"/>
  <sodipodi:namedview id="base" pagecolor="#ffffff" bordercolor="#666666" borderopacity="1.0" inkscape:pageopacity="0.0" inkscape:pageshadow="2" inkscape:zoom="0.35" inkscape:cx="247.9485" inkscape:cy="441.95185" inkscape:document-units="px" inkscape:current-layer="layer1" showgrid="false" fit-margin-top="0" fit-margin-left="0" fit-margin-right="0" fit-margin-bottom="0" inkscape:window-width="1366" inkscape:window-height="705" inkscape:window-x="-8" inkscape:window-y="-8" inkscape:window-maximized="1"/>
  <metadata id="metadata7">
    <rdf:RDF>
      <cc:Work rdf:about="">
        <dc:format>image/svg+xml</dc:format>
        <dc:type rdf:resource="http://purl.org/dc/dcmitype/StillImage"/>
        <dc:title/>
      </cc:Work>
    </rdf:RDF>
  </metadata>
  <g inkscape:label="Ebene 1" inkscape:groupmode="layer" id="layer1" transform="translate(517.17175,-677.066)">
    <g id="g3369" transform="translate(-549.17176,642.10877)">
      <path style="fill:#009ee0;fill-opacity:1;fill-rule:nonzero;stroke:none" id="path2438" d="m 32.000008,81.947477 886.918392,0 0,371.141223 -886.918392,0 0,-371.141223 z" inkscape:connector-curvature="0"/>
      <path style="fill:#e2001a;fill-opacity:1;fill-rule:nonzero;stroke:none" id="path2440" d="m 212.46757,424.95862 c 25.44856,55.84637 117.04488,68.63326 250.00464,27.52028 C 526.75516,432.60027 664.46543,380.35557 743.97449,324.49015 845.43662,253.20527 890.86182,214.7439 903.12875,198.49417 L 955.49867,264.31796 991.6597,53.931733 775.80698,35.362557 827.30302,102.27257 c 0,0 -69.90188,70.30207 -183.46215,120.09664 -86.20605,37.79984 -224.15861,83.26592 -262.27157,63.99165 -64.15499,-32.43957 25.92226,-119.18193 25.92226,-119.18193 -107.42953,24.53658 -186.16001,74.73129 -203.77364,174.87313 -4.33671,24.65635 -3.18787,56.71207 8.74965,82.90656" inkscape:connector-curvature="0"/>
      <path style="fill:none;stroke:#ed1c24;stroke-width:0.68058848;stroke-linecap:butt;stroke-linejoin:miter;stroke-miterlimit:10;stroke-dasharray:none;stroke-opacity:1" id="path2442" d="m 212.46757,424.95862 c 25.44856,55.84637 117.04488,68.63326 250.00464,27.52028 C 526.75516,432.60027 664.46543,380.35557 743.97449,324.49015 845.43662,253.20527 890.86182,214.7439 903.12875,198.49417 L 955.49867,264.31796 991.6597,53.931733 775.80698,35.362557 827.30302,102.27257 c 0,0 -69.90188,70.30207 -183.46215,120.09664 -86.20605,37.79984 -224.15861,83.26592 -262.27157,63.99165 -64.15499,-32.43957 25.92226,-119.18193 25.92226,-119.18193 -107.42953,24.53658 -186.16001,74.73129 -203.77364,174.87313 -4.33671,24.65635 -3.18787,56.71207 8.74965,82.90656 z" inkscape:connector-curvature="0"/>
      <path style="fill:#ffffff;fill-opacity:1;fill-rule:nonzero;stroke:none" id="path2446" d="m 627.58298,130.35637 0,22.34781 -8.51825,0 0,21.48481 8.39574,0 0,52.10309 26.05293,0 0,-52.22832 15.06278,0 0,-21.6046 -15.06278,0 0,-22.22529 -25.93042,0.1225" inkscape:connector-curvature="0"/>
      <path style="fill:#ffffff;fill-opacity:1;fill-rule:nonzero;stroke:none" id="path2448" d="m 228.7418,130.39176 0,22.34781 -8.51824,0 0,21.48209 8.39576,0 0,52.10309 26.05292,0 0,-52.22559 15.06277,0 0,-21.60733 -15.06277,0 0,-22.22257 -25.93044,0.1225" inkscape:connector-curvature="0"/>
      <path style="fill:#ffffff;fill-opacity:1;fill-rule:nonzero;stroke:none" id="path2450" d="m 555.5141,372.18307 0,12.2887 -4.68517,0 0,11.81774 4.61711,0 0,28.6555 14.32775,0 0,-28.72083 8.28685,0 0,-11.8858 -8.28685,0 0,-12.22337 -14.25969,0.0681" inkscape:connector-curvature="0"/>
      <path style="fill:#ffffff;fill-opacity:1;fill-rule:nonzero;stroke:none" id="path2452" d="m 397.16839,315.09803 0,3.15793 -3.27771,0 0,8.27323 3.23143,0 0,20.05831 10.02915,0 0,-20.10731 7.05362,-0.0653 0,-8.11805 -7.02095,0.0463 -0.14156,-6.11169 c -0.0381,-2.78224 1.85392,-3.52817 2.94014,-3.63434 2.96464,-0.28857 4.08353,1.44557 4.08353,1.44557 l 0.0436,-8.55368 c -11.98653,-2.10434 -17.19167,4.77505 -16.94121,13.60909" inkscape:connector-curvature="0"/>
      <path style="fill:none;stroke:#ffffff;stroke-width:0.68058848;stroke-linecap:butt;stroke-linejoin:miter;stroke-miterlimit:10;stroke-dasharray:none;stroke-opacity:1" id="path2454" d="m 397.16839,315.09803 0,3.15793 -3.27771,0 0,8.27323 3.23143,0 0,20.05831 10.02915,0 0,-20.10731 7.05362,-0.0653 0,-8.11805 -7.02095,0.0463 -0.14156,-6.11169 c -0.0381,-2.78224 1.85392,-3.52817 2.94014,-3.63434 2.96464,-0.28857 4.08353,1.44557 4.08353,1.44557 l 0.0436,-8.55368 c -11.98653,-2.10434 -17.19167,4.77505 -16.94121,13.60909 z" inkscape:connector-curvature="0"/>
      <path style="fill:#ffffff;fill-opacity:1;fill-rule:nonzero;stroke:none" id="path2456" d="m 677.5899,152.7069 -0.12251,73.46272 25.92498,0 0,-73.58523 -25.80247,0.12251" inkscape:connector-curvature="0"/>
      <path style="fill:#ffffff;fill-opacity:1;fill-rule:nonzero;stroke:none" id="path2458" d="m 703.39509,123.93979 c 0,7.22512 -5.85851,13.08635 -13.08908,13.08635 -7.22785,0 -13.08635,-5.86123 -13.08635,-13.08635 0,-7.23058 5.8585,-13.08908 13.08635,-13.08908 7.23057,0 13.08908,5.8585 13.08908,13.08908" inkscape:connector-curvature="0"/>
      <path style="fill:none;stroke:#ffffff;stroke-width:2.72235394;stroke-linecap:butt;stroke-linejoin:miter;stroke-miterlimit:10;stroke-dasharray:none;stroke-opacity:1" id="path2460" d="m 703.39509,123.93979 c 0,7.22512 -5.85851,13.08635 -13.08908,13.08635 -7.22785,0 -13.08635,-5.86123 -13.08635,-13.08635 0,-7.23058 5.8585,-13.08908 13.08635,-13.08908 7.23057,0 13.08908,5.8585 13.08908,13.08908 z" inkscape:connector-curvature="0"/>
      <path style="fill:#ffffff;fill-opacity:1;fill-rule:nonzero;stroke:none" id="path2462" d="m 710.18464,152.58439 38.52403,73.58791 17.15899,0 38.2763,-73.95815 -29.51032,0 -17.16171,37.5331 -17.9022,-37.40787 -29.38509,0.24501" inkscape:connector-curvature="0"/>
      <path style="fill:#ffffff;fill-opacity:1;fill-rule:nonzero;stroke:none" id="path2464" d="m 182.84836,106.78079 26.42317,0 0,119.26904 -26.42317,0 0,-119.26904 z" inkscape:connector-curvature="0"/>
      <path style="fill:#ffffff;fill-opacity:1;fill-rule:nonzero;stroke:none" id="path2466" d="m 713.50591,359.30089 14.53737,0 0,65.60056 -14.53737,0 0,-65.60056 z" inkscape:connector-curvature="0"/>
      <path style="fill:#ffffff;fill-opacity:1;fill-rule:nonzero;stroke:none" id="path2468" d="m 106.14876,185.75355 11.71701,-34.57934 11.374,34.57934 -23.09101,0 z m 27.22354,-68.12418 -30.78438,0.22868 -41.932415,108.21629 30.212683,0 7.467417,-18.61006 38.597535,0 7.23874,18.72439 30.32702,0 -41.1266,-108.5593" inkscape:connector-curvature="0"/>
      <path style="fill:#ffffff;fill-opacity:1;fill-rule:nonzero;stroke:none" id="path2470" d="m 366.34862,152.46189 0.11434,73.61245 26.07743,0 c 0,0 -0.22868,-14.02013 -0.11434,-27.8633 -0.91743,-34.85974 29.40959,-21.64815 29.40959,-21.64815 l 0,-25.27434 c -24.23984,-1.37751 -29.40959,13.61177 -29.40959,13.61177 l 0,-12.43843 -26.07743,0" inkscape:connector-curvature="0"/>
      <path style="fill:#ffffff;fill-opacity:1;fill-rule:nonzero;stroke:none" id="path2472" d="m 454.02747,318.38936 0.0463,28.15458 9.97199,0 c 0,0 -0.0871,-5.36032 -0.0436,-10.65529 -0.35119,-13.33409 11.24876,-8.27868 11.24876,-8.27868 l 0,-9.66708 c -9.27233,-0.52814 -11.24876,5.20514 -11.24876,5.20514 l 0,-4.75867 -9.97471,0" inkscape:connector-curvature="0"/>
      <path style="fill:#ffffff;fill-opacity:1;fill-rule:nonzero;stroke:none" id="path2474" d="m 832.17876,178.51481 c 0,0 1.95193,-11.60267 15.27785,-11.60267 13.32592,0 14.82049,11.60267 14.82049,11.60267 l -30.09834,0 z m 14.70343,-28.60377 c -42.86618,0 -41.35527,38.82893 -41.35527,38.82893 -0.11434,8.61353 2.29766,40.20645 41.81535,40.09207 34.81619,-0.10069 38.54037,-25.15995 38.54037,-25.15995 l -25.55746,0 c 0,0 -2.96465,6.89023 -13.21159,6.66427 -10.3395,-0.2314 -15.50925,-5.62978 -15.50925,-16.65804 l 55.25834,-0.11433 c 0,0 2.86936,-43.65295 -39.98049,-43.65295" inkscape:connector-curvature="0"/>
      <path style="fill:#ffffff;fill-opacity:1;fill-rule:nonzero;stroke:none" id="path2476" d="m 466.26718,398.56268 c 0,0 1.0726,-6.3812 8.40118,-6.3812 7.3313,0 8.15345,6.3812 8.15345,6.3812 l -16.55463,0 z m 8.08539,-15.73249 c -23.57559,0 -22.74527,21.35415 -22.74527,21.35415 -0.0626,4.73962 1.26589,22.11368 22.99845,22.05106 19.14903,-0.0544 21.19897,-13.83772 21.19897,-13.83772 l -14.05824,0 c 0,0 -1.63069,3.79224 -7.26596,3.66701 -5.687,-0.12795 -8.4393,-3.29405 -8.4393,-9.36217 l 30.2998,0.13339 c 0,0 1.57896,-24.00572 -21.98845,-24.00572" inkscape:connector-curvature="0"/>
      <path style="fill:#ffffff;fill-opacity:1;fill-rule:nonzero;stroke:none" id="path2478" d="m 299.50669,178.52026 c 0,0 1.9519,-11.60267 15.27783,-11.60267 13.32592,0 14.82049,11.60267 14.82049,11.60267 l -30.09832,0 z m 14.70341,-28.60377 c -42.86616,0 -41.35526,38.82893 -41.35526,38.82893 -0.11433,8.61625 2.29765,40.20644 41.81534,40.0921 34.81618,-0.10072 38.54036,-25.15727 38.54036,-25.15727 l -25.55746,0 c 0,0 -2.96464,6.89028 -13.21158,6.66156 -10.3395,-0.22868 -15.50925,-5.62979 -15.50925,-16.65532 l 55.25834,-0.11706 c 0,0 2.86936,-43.65294 -39.98049,-43.65294" inkscape:connector-curvature="0"/>
      <path style="fill:#ffffff;fill-opacity:1;fill-rule:nonzero;stroke:none" id="path2480" d="m 431.80218,152.54083 0,73.58795 26.00392,0 0,-40.57124 c 0,0 0.32396,-15.21251 13.38037,-14.99744 13.05369,0.21506 12.08453,14.99744 12.08453,14.99744 l 0,40.68014 26.21899,-0.0681 c 0,0 0,-34.88424 0,-40.30445 0,-5.42021 1.93831,-35.74179 -26.11282,-35.74179 -19.43216,0 -25.4649,12.19343 -25.4649,12.19343 l -0.10617,-9.77598 -26.00392,0" inkscape:connector-curvature="0"/>
      <path style="fill:#ffffff;fill-opacity:1;fill-rule:nonzero;stroke:none" id="path2482" d="m 791.06033,384.39827 0,40.47323 14.2978,0 0,-22.31241 c 0,0 0.1824,-8.36851 7.36124,-8.25145 7.18157,0.11706 6.64799,8.25145 6.64799,8.25145 l 0,22.37231 14.42031,-0.0381 c 0,0 0,-19.18442 0,-22.16812 0,-2.97826 1.06444,-19.6554 -14.36314,-19.6554 -10.68796,0 -14.00379,6.70244 -14.00379,6.70244 l -0.0626,-5.37393 -14.2978,0" inkscape:connector-curvature="0"/>
      <path style="fill:#ffffff;fill-opacity:1;fill-rule:nonzero;stroke:none" id="path2484" d="m 661.66413,359.88347 0,64.97442 14.2978,0 0,-22.31241 c 0,0 0.17967,-8.36852 7.36124,-8.24873 7.18157,0.11706 6.64527,8.24873 6.64527,8.24873 l 0,22.3723 14.42031,-0.0381 c 0,0 0,-19.18443 0,-22.16813 0,-2.97825 1.06716,-19.65539 -14.36042,-19.65539 -10.68796,0 -14.00651,6.70516 -14.00651,6.70516 l -0.0599,-29.87784 -14.2978,0" inkscape:connector-curvature="0"/>
      <path style="fill:#ffffff;fill-opacity:1;fill-rule:nonzero;stroke:none" id="path2486" d="m 565.49425,206.91713 c -9.59085,0 -17.36589,-7.77504 -17.36589,-17.36317 0,-9.58813 7.77504,-17.36317 17.36589,-17.36317 9.58813,0 17.36318,7.77504 17.36318,17.36317 0,9.58813 -7.77505,17.36317 -17.36318,17.36317 z m 16.0755,-54.58864 0,7.76688 c 0,0 -6.58265,-9.92571 -22.55198,-9.92571 -19.63634,-0.21506 -37.44053,14.13447 -37.54942,39.70826 1.07805,31.50576 26.43405,39.06029 37.0104,38.95139 15.96932,0.10618 23.091,-10.79136 23.091,-10.79136 l 0,8.30862 26.32789,0 0,-74.01808 -26.32789,0" inkscape:connector-curvature="0"/>
      <path style="fill:#ffffff;fill-opacity:1;fill-rule:nonzero;stroke:none" id="path2488" d="m 758.36758,414.31149 c -5.27048,0 -9.5473,-4.27681 -9.5473,-9.55274 0,-5.27047 4.27682,-9.54457 9.5473,-9.54457 5.27592,0 9.55274,4.2741 9.55274,9.54457 0,5.27593 -4.27682,9.55274 -9.55274,9.55274 z m 8.84221,-30.02484 0,4.27138 c 0,0 -3.61801,-5.46105 -12.40033,-5.46105 -10.8023,-0.11706 -20.59188,7.77777 -20.6545,21.84145 0.5962,17.32778 14.54282,21.48209 20.35777,21.4222 8.78231,0.0572 12.69706,-5.93473 12.69706,-5.93473 l 0,4.57083 14.48292,0 0,-40.71008 -14.48292,0" inkscape:connector-curvature="0"/>
      <path style="fill:#ffffff;fill-opacity:1;fill-rule:nonzero;stroke:none" id="path2490" d="m 864.48221,414.25977 c -5.27592,0 -9.55002,-4.27954 -9.55002,-9.55002 0,-5.27592 4.2741,-9.55002 9.55002,-9.55002 5.2732,0 9.55002,4.2741 9.55002,9.55002 0,5.27048 -4.27682,9.55002 -9.55002,9.55002 z m 8.84221,-54.52875 0,28.778 c 0,0 -3.62073,-5.46104 -12.40577,-5.46104 -10.79686,-0.11978 -20.58916,7.77232 -20.65178,21.836 0.5962,17.32779 14.5401,21.48754 20.35777,21.42221 8.78231,0.0626 12.69978,-5.93201 12.69978,-5.93201 l 0,4.57083 14.4802,0 0,-65.21399 -14.4802,0" inkscape:connector-curvature="0"/>
      <path style="fill:#ffffff;fill-opacity:1;fill-rule:nonzero;stroke:none" id="path2492" d="m 411.50431,411.94577 0,-32.73086 c 0,0 20.16719,-2.25683 20.36048,16.75336 0.18784,18.55285 -20.36048,15.9775 -20.36048,15.9775 z m 4.4456,-45.80905 c -0.6452,0.005 -19.45666,0 -19.45666,0 l 0,58.69395 c 0,0 9.83586,0.0245 19.56555,-0.0299 11.40394,-0.0681 31.91416,-4.60894 31.65553,-29.41231 -0.22051,-21.19897 -18.55556,-29.38236 -31.76442,-29.25169" inkscape:connector-curvature="0"/>
      <path style="fill:#ffffff;fill-opacity:1;fill-rule:nonzero;stroke:none" id="path2494" d="m 502.95089,384.37649 13.66078,0 0.12795,23.25979 c 0,8.44202 14.55915,8.50464 14.55915,0 l 0,-23.32513 13.85405,-0.0653 0,25.13005 c 0,0 2.12616,16.4294 -20.87501,16.4294 -23.00116,0 -21.32692,-16.55735 -21.32692,-16.55735 l 0,-24.87143" inkscape:connector-curvature="0"/>
      <path style="fill:#ffffff;fill-opacity:1;fill-rule:nonzero;stroke:none" id="path2496" d="m 417.40092,318.52003 9.56363,0 0.0898,16.2824 c 0,5.9075 10.18977,5.95106 10.18977,0 l 0,-16.32868 9.69975,-0.049 0,17.59185 c 0,0 1.48913,11.50194 -14.6136,11.50194 -16.1,0 -14.92939,-11.58906 -14.92939,-11.58906 l 0,-17.40945" inkscape:connector-curvature="0"/>
      <path style="fill:#ffffff;fill-opacity:1;fill-rule:nonzero;stroke:none" id="path2498" d="m 609.82234,394.35936 c -1.68514,-1.60619 -12.08181,-3.81129 -12.37038,0.96916 -0.38929,6.37303 19.06465,0.29946 18.16899,15.9775 -0.64247,11.27054 -9.34856,14.49381 -18.04103,14.49381 -5.57266,0 -13.40215,-1.99821 -16.94666,-4.63617 l 4.96285,-9.86037 c 2.51001,2.12616 15.09273,7.19518 16.17079,1.22778 1.09438,-6.06268 -18.84958,-0.89293 -18.10366,-15.46569 1.03177,-20.16992 25.83786,-14.3713 30.66732,-11.3386 l -4.50822,8.63258" inkscape:connector-curvature="0"/>
      <path style="fill:#ffffff;fill-opacity:1;fill-rule:nonzero;stroke:none" id="path2500" d="m 652.53607,385.4001 c -7.40752,-4.63889 -31.31523,-3.02998 -31.63647,18.49295 -0.36207,24.41679 26.67634,23.25979 31.76442,19.522 l -0.12795,-11.85586 c 0,0 -6.75688,4.85941 -12.95023,1.22506 -6.69972,-3.93108 -4.60895,-13.87856 -0.32396,-16.55735 7.73148,-4.8349 13.33953,1.28767 13.33953,1.28767 l -0.0653,-12.11447" inkscape:connector-curvature="0"/>
      <path style="fill:#ffffff;fill-opacity:1;fill-rule:nonzero;stroke:none" id="path2502" d="m 430.15787,308.0063 c 0,2.76046 -2.23505,4.99552 -4.99552,4.99552 -2.76046,0 -4.99824,-2.23506 -4.99824,-4.99552 0,-2.76047 2.23778,-4.99824 4.99824,-4.99824 2.76047,0 4.99552,2.23777 4.99552,4.99824" inkscape:connector-curvature="0"/>
      <path style="fill:none;stroke:#ffffff;stroke-width:0.68058848;stroke-linecap:butt;stroke-linejoin:miter;stroke-miterlimit:10;stroke-dasharray:none;stroke-opacity:1" id="path2504" d="m 430.15787,308.0063 c 0,2.76046 -2.23505,4.99552 -4.99552,4.99552 -2.76046,0 -4.99824,-2.23506 -4.99824,-4.99552 0,-2.76047 2.23778,-4.99824 4.99824,-4.99824 2.76047,0 4.99552,2.23777 4.99552,4.99824 z" inkscape:connector-curvature="0"/>
      <path style="fill:#ffffff;fill-opacity:1;fill-rule:nonzero;stroke:none" id="path2506" d="m 444.04732,308.0063 c 0,2.76046 -2.23505,4.99552 -4.99552,4.99552 -2.76046,0 -4.99551,-2.23506 -4.99551,-4.99552 0,-2.76047 2.23505,-4.99824 4.99551,-4.99824 2.76047,0 4.99552,2.23777 4.99552,4.99824" inkscape:connector-curvature="0"/>
      <path style="fill:none;stroke:#ffffff;stroke-width:0.68058848;stroke-linecap:butt;stroke-linejoin:miter;stroke-miterlimit:10;stroke-dasharray:none;stroke-opacity:1" id="path2508" d="m 444.04732,308.0063 c 0,2.76046 -2.23505,4.99552 -4.99552,4.99552 -2.76046,0 -4.99551,-2.23506 -4.99551,-4.99552 0,-2.76047 2.23505,-4.99824 4.99551,-4.99824 2.76047,0 4.99552,2.23777 4.99552,4.99824 z" inkscape:connector-curvature="0"/>
    </g>
  </g>
</svg>