<?xml version="1.0" encoding="UTF-8" standalone="no"?>
<!-- Created with Inkscape (http://www.inkscape.org/) -->
<svg xmlns:svg="http://www.w3.org/2000/svg" xmlns="http://www.w3.org/2000/svg" version="1.1" width="103.10137" height="91.838127" id="svg3402">
  <defs id="defs3404">
    <clipPath id="clipPath3134">
      <path d="m 480.656,732.1418 94.926,0 0,84.344 -94.926,0 0,-84.344 z" id="path3136"/>
    </clipPath>
    <clipPath id="clipPath3142">
      <path d="m 486.525,738.2137 82.4811,0 0,73.4705 -82.4811,0 0,-73.4705 z" id="path3144"/>
    </clipPath>
    <radialGradient cx="0" cy="0" r="1" fx="0" fy="0" id="radialGradient3156" gradientUnits="userSpaceOnUse" gradientTransform="matrix(-59.86192,0,0,-59.86192,480.6045,816.6049)" spreadMethod="pad">
      <stop id="stop3158" style="stop-color:#f68193;stop-opacity:1" offset="0"/>
      <stop id="stop3160" style="stop-color:#ed1c24;stop-opacity:1" offset="1"/>
    </radialGradient>
    <radialGradient cx="0" cy="0" r="1" fx="0" fy="0" id="radialGradient3174" gradientUnits="userSpaceOnUse" gradientTransform="matrix(-68.48254,0,0,-68.48254,586.4833,730.5782)" spreadMethod="pad">
      <stop id="stop3176" style="stop-color:#870e12;stop-opacity:1" offset="0"/>
      <stop id="stop3178" style="stop-color:#d81920;stop-opacity:1" offset="1"/>
    </radialGradient>
    <linearGradient x1="0" y1="0" x2="1" y2="0" id="linearGradient3192" gradientUnits="userSpaceOnUse" gradientTransform="matrix(-45.50681,26.27332,-26.27332,-45.50681,544.1671,799.8801)" spreadMethod="pad">
      <stop id="stop3194" style="stop-color:#c4161d;stop-opacity:1" offset="0"/>
      <stop id="stop3196" style="stop-color:#ed1c24;stop-opacity:1" offset="0.39010999"/>
      <stop id="stop3198" style="stop-color:#f1495f;stop-opacity:1" offset="0.73076999"/>
      <stop id="stop3200" style="stop-color:#f0385f;stop-opacity:1" offset="1"/>
    </linearGradient>
  </defs>
  <g transform="translate(-437.02074,-772.15745)" id="layer1">
    <g transform="matrix(1.25,0,0,-1.25,-171.13551,1786.7627)" id="g3130">
      <g clip-path="url(#clipPath3134)" id="g3132">
        <g id="g3138">
          <g clip-path="url(#clipPath3142)" id="g3140">
            <g id="g3146">
              <g id="g3148">
                <g id="g3154">
                  <path d="m 486.525,750.1297 52.9571,-11.916 0,67.3619 -52.9571,3.1352" id="path3162" style="fill:url(#radialGradient3156);stroke:none"/>
                </g>
              </g>
            </g>
            <g id="g3164">
              <g id="g3166">
                <g id="g3172">
                  <path d="m 539.4821,738.2137 29.5241,16.5798 0,55.1937 -29.5241,-4.4116" id="path3180" style="fill:url(#radialGradient3174);stroke:none"/>
                </g>
              </g>
            </g>
            <g id="g3182">
              <g id="g3184">
                <g id="g3190">
                  <path d="m 539.4821,805.5756 29.5241,4.4116 -48.358,1.697 -34.1232,-2.9729" id="path3202" style="fill:url(#linearGradient3192);stroke:none"/>
                </g>
              </g>
            </g>
            <path d="m 504.5012,758.8903 c 0.1148,-0.0219 0.1721,-0.0328 0.2869,-0.0546 1.2273,-0.234 2.4372,-0.5474 2.4372,1.3151 0,1.7762 -1.1236,1.9804 -2.4374,2.2181 -0.1148,0.0209 -0.1721,0.031 -0.287,0.0519 0,-1.4121 3e-4,-2.1184 3e-4,-3.5305 z m -3.6718,7.5019 c 2.301,-0.3959 3.4515,-0.5935 5.7526,-0.9896 2.8553,-0.4447 4.0904,-3.2419 4.1699,-5.7846 0.0781,-2.4951 -1.3583,-5.2231 -4.3322,-4.3677 -0.7543,0.1503 -1.1319,0.2258 -1.8862,0.3762 0,-1.9943 10e-5,-2.9922 10e-5,-4.9864 -1.4817,0.3152 -2.2223,0.4736 -3.7039,0.7889 -8e-4,4.9879 -3e-4,9.9753 -3e-4,14.9632" id="path3204" style="fill:#ffffff;fill-opacity:1;fill-rule:nonzero;stroke:none"/>
            <path d="m 515.2935,751.9071 c 0.1611,-0.0327 0.2414,-0.0488 0.4025,-0.0815 2.0124,-0.4095 3.5195,0.715 3.5195,3.5672 0,2.3969 -1.3177,4.3479 -3.485,4.7414 -0.1747,0.0317 -0.2623,0.0481 -0.437,0.0798 0,-2.7691 0,-5.5378 0,-8.3069 z m -3.7254,12.6379 c 2.1961,-0.3777 3.294,-0.5663 5.4902,-0.944 4.0804,-0.7386 5.771,-5.2591 5.808,-8.9095 0.033,-3.2459 -1.747,-7.6668 -5.808,-6.7155 -2.1959,0.4674 -3.2941,0.7011 -5.4902,1.1684 0,5.1337 0,10.2669 0,15.4006" id="path3206" style="fill:#ffffff;fill-opacity:1;fill-rule:nonzero;stroke:none"/>
            <path d="m 497.9032,762.7872 c -0.708,0.6529 -1.8535,1.1681 -2.3951,1.2663 -0.6632,0.1198 -1.5133,0.0631 -1.5133,-0.7527 0,-0.8548 0.8399,-1.1734 1.603,-1.5481 0,0 0.9365,-0.4079 1.3362,-0.6325 1.7238,-0.9681 3.0109,-1.9129 3.0109,-4.5454 0,-1.4809 -0.332,-2.8567 -1.4369,-3.6262 -1.085,-0.7557 -2.5421,-0.9342 -3.9421,-0.6346 -1.7498,0.3742 -3.4863,1.2273 -4.9521,2.8686 0.6473,1.0779 0.971,1.6188 1.6183,2.7075 0.9026,-1.0097 1.971,-1.9867 3.2052,-2.2395 0.8472,-0.1737 1.6795,-0.0553 1.6795,0.9803 0,1.0747 -1.3462,1.4005 -2.122,1.7775 -1.6742,0.8135 -3.6977,1.9098 -3.7574,5.2323 -0.0479,2.6583 2.1804,4.534 4.7891,4.0452 1.374,-0.2576 3.1837,-1.2779 4.4179,-2.2438 -0.6166,-1.0671 -0.9246,-1.5979 -1.5412,-2.6549" id="path3208" style="fill:#ffffff;fill-opacity:1;fill-rule:nonzero;stroke:none"/>
            <path d="m 533.5333,756.3577 c 0.1884,0.4515 0.4442,0.8111 0.4517,0.8095 0.1717,-0.0304 0.2576,-0.0453 0.4294,-0.076 -0.2942,-0.0944 -0.6238,-0.3571 -0.8811,-0.7335 z m 0.2345,-2.3846 c 0.3537,-0.5645 0.531,-0.8475 0.8848,-1.4141 0.11,-0.1759 0.1651,-0.2641 0.2752,-0.4406 -0.0906,0.0176 -0.1357,0.0264 -0.2264,0.0438 -0.1058,0.1758 -0.1584,0.2629 -0.2641,0.4381 -0.3404,0.5638 -0.5109,0.8453 -0.8514,1.4068 0.073,-0.0136 0.109,-0.0203 0.1819,-0.034 z m 1.3224,-3.5385 c -0.0602,-0.3117 -0.3296,-0.6967 -0.8274,-0.6192 -0.4104,0.064 -0.8758,0.4047 -0.9972,0.4911 -0.1462,0.104 -0.2021,0.0956 -0.2568,0.034 -0.2858,-0.3239 -0.3875,-0.6608 -0.4699,-1.0287 -0.5705,0.1148 -0.8558,0.1718 -1.4264,0.2866 -0.0652,0.3268 -0.1224,0.6594 -0.1918,0.99 -0.0215,0.102 -0.089,0.1741 -0.237,0.2053 -0.3089,0.0649 -0.6625,0.0352 -0.8007,0.003 -0.1423,-0.0332 -0.344,-0.1239 -0.4495,-0.3636 -0.0783,-0.179 -0.1032,-0.3336 -0.1317,-0.4706 -0.49,0.0987 -0.7347,0.1478 -1.2247,0.2462 0,0 0.0433,0.2226 0.0662,0.3264 0.0567,0.2591 0.1422,0.5706 0.3167,0.8047 0.1461,0.1957 0.4032,0.3327 0.554,0.2999 1.7823,-0.351 2.6731,-0.527 4.4554,-0.878 0.0443,-0.0498 0.3684,-0.4442 0.6864,-0.5351 0.2487,-0.0713 0.56,-0.0141 0.6516,0.2674 0.1133,-0.0237 0.1695,-0.0354 0.2828,-0.0594 z m -1.7178,-2.9269 c -0.4404,-0.5633 -0.6605,-0.8448 -1.1009,-1.4043 -0.7508,0.1573 -1.1265,0.236 -1.8774,0.3933 -0.008,0.103 0.1874,0.2105 0.2886,0.1957 0.2236,-0.0333 0.387,-0.2093 0.568,-0.2541 0.2199,-0.0544 0.4626,0.098 0.6922,0.3344 0.0882,0.0909 0.2974,0.3052 0.34,0.3931 0.1183,0.2447 0.0826,0.4406 0.0539,0.5542 0.4142,-0.0852 0.6214,-0.1272 1.0356,-0.2123 z m -6.0351,0.3266 c -0.1405,0.0378 -0.3779,0.391 -0.6192,0.4553 -0.2294,0.0609 -0.4712,-0.1567 -0.5464,-0.1262 -0.07,0.0287 -0.075,0.3067 -0.1488,0.4313 -0.0645,0.0985 -0.2821,0.0489 -0.2875,0.1307 -0.006,0.0839 0.0563,0.2498 0.0999,0.3296 0.9807,-0.2009 1.4713,-0.3019 2.4517,-0.5031 -0.1581,-0.2017 -0.6914,-0.7874 -0.9497,-0.7176 z m -3.2926,6.3803 c 0.0111,0.0844 0.0194,0.2498 0.0647,0.3689 0.0368,0.097 0.099,0.163 0.2076,0.1262 0.1022,-0.0343 0.3799,-0.1393 0.6101,-0.1841 0.3338,-0.065 1.2083,0.3382 1.3455,0.4948 0.0864,-0.2218 0.1849,-0.6562 0.4951,-0.7153 0.0438,-0.008 2.5714,-0.4916 2.5714,-0.4916 0.2674,-0.0511 0.4326,0.0504 0.5406,0.248 0.1173,-0.2533 0.3087,-0.4114 0.5305,-0.454 0.6278,-0.1201 0.942,-0.18 1.57,-0.3004 0.0524,-0.104 0.0788,-0.1561 0.1312,-0.26 0.0871,-0.1725 0.1302,-0.2584 0.2173,-0.4309 -2.7615,0.5328 -5.5227,1.0654 -8.284,1.5984 z m 5.6482,0.5265 c 0,-0.1239 0,-0.1863 0,-0.3102 9e-4,-0.0274 -0.0607,-0.3115 -0.38,-0.2508 -1.0135,0.1932 -1.5201,0.2894 -2.5336,0.4825 -0.135,0.0219 -0.285,0.596 -0.3014,0.6859 1.2859,-0.243 1.9293,-0.3644 3.215,-0.6074 z m -3.7617,2.3078 c -0.2067,0.5394 -0.4363,1.196 -0.641,1.7266 0.1362,-0.0247 1.3075,-0.2324 1.3075,-0.2324 0.0217,-0.004 0.4641,-0.6605 0.6935,-0.97 0.2377,-0.321 0.7987,-0.4593 1.0643,-0.5348 0.2118,-0.0604 0.6663,-0.1453 0.7456,-0.1586 0.3742,-0.0635 0.4797,0.1639 0.4779,0.3948 -0.002,0.2198 -0.2258,0.4585 -0.3877,0.7625 1.263,-0.2284 1.8945,-0.3425 3.1576,-0.5709 5e-4,-0.1866 -0.002,-0.2347 0.003,-0.3669 0.0188,-0.3485 0.0282,-0.5227 0.0473,-0.8712 -0.0592,0 -0.1022,0.0159 -0.1634,-0.0649 -0.0549,-0.066 -0.0403,-0.2725 -0.0403,-0.2725 -2.5059,0.4631 -3.7584,0.6952 -6.2643,1.1583 z m -1.5609,3.4849 c 0.0234,0.1607 0.3541,0.1461 0.3636,0.314 0.0164,0.1194 0.2065,0.0695 0.2798,0.0411 0.1805,-0.0696 0.3021,-0.2267 0.4605,-0.5505 -0.4417,0.078 -0.6622,0.1176 -1.1039,0.1954 z m 5.3714,-2.3667 c -0.0385,-0.0279 -0.1289,-0.0284 -0.2059,-0.0103 -0.1728,0.0405 -0.2995,0.2219 -0.2995,0.3009 3e-4,0.1047 0.174,0.0846 0.3058,0.065 0.112,-0.0167 0.2311,-0.059 0.257,-0.1307 0.032,-0.0894 0.004,-0.1806 -0.0574,-0.2249 z m -0.0121,0.6398 c -0.0219,0.007 -0.107,0.0411 -0.1855,0.056 -0.1707,0.0319 -0.3377,-0.061 -0.3087,0.038 0.0548,0.1878 0.1976,0.2777 0.3217,0.2558 0.1126,-0.0201 0.2662,-0.1299 0.2617,-0.2963 -0.002,-0.0643 -0.002,-0.0829 -0.0892,-0.0535 z m -0.9186,0.9231 c 0.1033,0.2647 0.3405,0.3407 0.515,0.4823 0.1425,0.1153 1.0137,0.6894 1.12,0.671 0.1478,-0.0257 0.1546,-0.3573 0.4021,-0.4004 0.1053,-0.0181 0.3437,0.161 0.3757,0.1554 0.06,-0.0103 0.0712,-0.0781 0.0712,-0.1279 0,-0.0275 -0.0841,-0.307 -0.0886,-0.3974 -0.005,-0.1034 0.0434,-0.144 0.1015,-0.1596 0.1186,-0.0325 0.1793,0.1997 0.2566,0.1848 0.0679,-0.0133 0.1579,-0.0932 0.239,-0.1898 0.0589,-0.07 0.2608,-0.4321 0.2608,-0.5326 0,-0.1035 -0.0643,-0.0899 -0.0643,-0.249 -1.2758,0.2254 -1.9136,0.3377 -3.189,0.5632 z m 3.3684,-6.096 c -0.6887,0.1311 -1.0332,0.1971 -1.7218,0.3286 -0.2531,0.0481 -0.382,0.3047 -0.382,0.3898 0,0.1266 0,0.1901 0,0.3167 0.7733,-0.146 1.1598,-0.2193 1.9331,-0.3653 0.003,-0.0302 -0.006,-0.062 -0.006,-0.0897 0,-0.186 0.0859,-0.3746 0.177,-0.5801 z m 3.993,5.909 c -0.083,0.2696 -0.2143,0.5638 -0.425,0.8372 0.0494,-0.2332 0.2541,-1.1187 0.002,-1.7548 -0.0767,-0.1941 -0.2251,-0.5129 -0.4094,-0.457 -0.0763,0.037 -0.047,0.1302 -0.0798,0.2251 -0.0418,0.1206 -0.1529,0.1888 -0.2158,0.1949 -0.3369,0.0317 -1.0709,-0.8511 -1.2738,-1.1442 -0.3752,-0.5423 -0.7411,-1.4479 -0.8093,-1.9182 -0.0559,-0.3868 0.004,-0.7954 0.1886,-1.1951 0.1772,-0.3835 0.5255,-1.0077 0.9014,-1.6563 0.098,-0.1687 0.1972,-0.3396 0.2964,-0.5083 0.2158,-0.3667 0.3165,-0.6119 0.3182,-0.8985 0.004,-0.5021 -0.1405,-0.7494 -0.5144,-0.6595 -0.3658,0.0879 -1.1847,1.3625 -1.6865,2.3708 -0.0456,0.0916 -0.0887,0.1812 -0.1284,0.2674 0.1417,-0.0273 0.2326,0.0349 0.2112,0.1865 -0.0428,0.2093 -0.2377,0.5749 -0.2359,0.7154 0.003,0.2254 0.1536,0.5111 0.1755,0.912 0.0214,0.385 0.0141,0.4873 -0.002,0.7766 0.1113,-0.0207 0.0602,-0.0106 0.1564,-0.0295 0.0511,-0.0101 0.0775,0.0151 0.0737,0.0829 -0.008,0.149 -0.0626,0.9402 -0.0734,1.1542 -0.0116,0.2226 0.073,0.7775 0.007,1.0969 -0.0523,0.2545 -0.3236,0.7433 -0.349,0.9742 -0.007,0.0647 0.0602,0.1007 0.0622,0.2271 0.004,0.2354 -0.104,0.4794 -0.2778,0.7566 -0.0319,0.0512 -0.076,0.1118 -0.1422,0.1607 -0.201,0.1483 -0.2589,0.2752 -0.3437,0.4225 -0.0881,0.1531 -0.1901,0.2745 -0.2913,0.3596 -0.0932,0.0778 -0.2775,0.145 -0.4135,0.1848 -0.2029,0.0597 -0.4548,0.071 -0.5676,0.0287 -0.3978,-0.1505 -0.811,-0.4462 -1.1864,-0.7116 -0.3679,-0.2599 -0.6315,-0.3825 -0.6315,-0.7841 0,-0.2543 0.1236,-0.7667 0.2213,-0.9717 -0.0738,-0.0204 -0.1181,-0.0146 -0.2347,0.006 -0.2191,0.0393 -0.416,0.1604 -0.4316,0.5985 -0.1435,0.026 -0.2007,-0.1636 -0.2007,-0.2729 0,-0.067 0.0199,-0.1584 0.0564,-0.2392 0.1391,-0.3077 0.4515,-0.4148 0.6328,-0.4472 0.0224,-0.004 0.1745,-0.0124 0.2657,-0.006 0.0133,-0.1178 -0.0282,-0.2094 0.003,-0.3072 0.0737,-0.2283 0.4852,-0.6674 0.4479,-0.7924 -0.033,-0.1115 -0.3649,-0.0661 -0.7597,0.0512 -0.2747,0.0816 -0.8148,0.1805 -1.0296,0.462 -0.5308,0.6965 -1.0578,1.4582 -1.4919,2.1383 -0.1191,0.1858 -0.1954,0.4255 -0.306,0.6184 -0.2459,0.4293 -0.4116,0.5928 -0.6758,0.6547 -0.2437,0.0569 -0.3565,0.0111 -0.4197,-0.0178 -0.094,-0.0427 -0.1355,-0.1922 -0.2131,-0.2486 -0.1093,-0.0793 -0.322,-0.1767 -0.3897,-0.3299 -0.0605,-0.1354 0.0231,-0.3273 0.0226,-0.5517 -5e-4,-0.1815 -0.0337,-0.2485 -0.0436,-0.3147 -0.0204,-0.1339 0.0177,-0.3535 0.1292,-0.4298 0.1889,-0.1292 0.3755,-0.1398 0.4203,-0.1511 -0.0189,-0.0861 -0.0451,-0.2083 -0.0451,-0.2352 0,-0.0274 -0.01,-0.2102 0.1309,-0.3011 0.1625,-0.1056 0.3782,0.0234 0.4734,-0.1559 0.2453,-0.6555 1.0934,-2.932 1.0934,-3.1035 0,-0.0266 -0.2329,-0.1795 -0.3226,-0.2291 -0.0622,-0.0345 -0.6809,-0.3329 -0.9153,-0.287 -0.098,0.0188 -0.597,0.1808 -0.597,0.1808 -0.2649,0.0503 -0.4422,-0.0446 -0.5306,-0.4354 -0.004,-0.0171 -0.008,-0.036 -0.0111,-0.0539 -0.0282,-0.1425 -0.043,-0.3283 -0.1072,-0.4744 -0.0154,-0.035 -0.0892,-0.1856 -0.025,-0.323 0.1086,-0.2332 0.3476,-0.068 0.3755,-0.2639 0.006,-0.0448 0.0254,-0.4429 0.2672,-0.4903 0.2157,-0.0423 0.2958,0.1589 0.389,0.1405 0.1296,-0.0252 0.1526,-0.3442 0.354,-0.383 0.3039,-0.0584 0.4508,0.6112 0.5094,0.7408 0.1858,-0.036 3.7204,-0.7216 3.8858,-0.7536 0.2437,-0.0471 0.3253,-0.0612 0.3187,-0.3412 -0.003,-0.1621 -0.004,-0.2342 -0.2152,-0.3059 -0.4822,-0.1297 -1.0871,-0.006 -1.4496,-0.7315 -0.1398,-0.2803 -0.21,-0.517 -0.3049,-1.0027 -0.0514,-0.2631 -0.1345,-0.8067 -0.2176,-0.9526 -0.0899,-0.1586 -0.1828,-0.1465 -0.3153,-0.1102 -0.3061,0.0841 -0.665,0.2714 -0.9629,0.4069 -0.2278,0.0934 -0.2598,0.0901 -0.3326,0.044 -0.2674,-0.1684 -0.4731,-0.7035 -0.5016,-0.9918 -0.0282,-0.2893 0.0507,-0.3895 0.384,-0.4585 0.0315,-0.1294 0.0934,-0.446 0.2891,-0.528 0.2281,-0.0958 0.3596,0.1694 0.5842,0.1123 0.2498,-0.0635 0.3001,-0.3936 0.6058,-0.4528 0.2563,-0.0493 0.5464,0.1183 0.7977,0.3503 0.1886,0.174 0.3422,0.4079 0.5391,0.5645 0.1458,0.1161 0.5356,0.1669 0.7146,0.4389 0.1612,0.2452 0.1584,0.5587 0.2047,0.8619 0.0277,0.1808 0.0373,0.4127 0.1456,0.5699 0.0597,0.0871 0.1732,0.1412 0.2417,0.1656 0.1715,0.0617 0.3918,0.0687 0.6985,0.008 0.0708,-0.4314 0.1591,-0.8544 0.2508,-1.2663 0.0652,-0.2916 0.1599,-0.6691 0.3858,-0.9828 0.1301,-0.1813 0.2354,-0.2808 0.4177,-0.3745 0.1999,-0.1027 0.279,-0.0727 0.3225,-0.1638 0.0713,-0.1499 -0.0282,-0.2836 -0.0684,-0.338 -0.1217,-0.1642 -0.5044,-0.5325 -0.7013,-0.4915 -0.1249,0.0262 -0.3701,0.2075 -0.5752,0.2521 -0.2565,0.0556 -0.6,-0.2372 -0.6012,-0.4636 -8e-4,-0.1823 0.0982,-0.2535 0.0971,-0.4439 -2e-4,-0.0816 -0.0982,-0.3243 -0.0228,-0.5273 0.0702,-0.1893 0.2059,-0.2203 0.2827,-0.3195 0.0622,-0.0798 0.1227,-0.2201 0.2619,-0.2644 0.1344,-0.0428 0.2881,0.0937 0.4822,0.0519 0.174,-0.0376 0.5066,-0.317 0.6899,-0.3561 0.2654,-0.0566 0.4379,0.1647 0.4379,0.4973 0,0.028 -0.0176,0.275 -0.0176,0.3027 0,0.0279 0.0143,0.0546 0.0267,0.07 0.3749,0.4653 1.27,1.5558 1.3566,1.7006 0.1416,0.2362 0.3032,0.5686 0.194,0.8504 -0.0962,0.2478 -0.2181,0.2387 -0.3924,0.2827 -0.0219,0.006 -0.3182,0.0199 -0.3406,0.0242 -0.171,0.0347 -0.3314,0.2206 -0.3314,0.4764 0,0.2062 0.0458,0.4256 0.1075,0.5948 0.0952,0.2621 0.2284,0.423 0.2508,0.4185 0.0219,-0.004 0.491,-0.3843 1.1399,-0.5188 0.8171,-0.106 1.1213,0.7129 1.1938,1.256 0.0637,0.4802 -0.1284,1.1321 -0.2755,1.4066 -0.0622,0.1158 -0.1382,0.247 -0.2243,0.3885 -5e-4,3e-4 -8e-4,3e-4 -8e-4,5e-4 -0.3256,0.5323 -0.7924,1.2107 -1.1626,1.7679 -0.2367,0.3566 -0.4403,0.7177 -0.386,1.1547 0.0534,0.4306 0.5532,1.3079 1.1805,1.3532 0.3306,0.0242 0.5157,0.0494 0.629,0.0753 0.3011,0.0695 0.4618,0.2082 0.6637,0.4785 0.1874,0.2503 0.306,0.5599 0.3349,0.8369 0.0829,0.7854 -0.0393,1.2049 -0.0947,1.3847" id="path3210" style="fill:#ffffff;fill-opacity:1;fill-rule:nonzero;stroke:none"/>
            <path d="m 529.4756,760.0453 c 0.0614,-0.0108 0.0924,-0.0164 0.154,-0.0272 0,0.0766 0,0.1148 0,0.1911 -0.0616,0.0109 -0.0926,0.0159 -0.154,0.0267 0,-0.0765 0,-0.114 0,-0.1906" id="path3212" style="fill:#ffffff;fill-opacity:1;fill-rule:nonzero;stroke:none"/>
          </g>
        </g>
      </g>
    </g>
  </g>
</svg>