<?xml version="1.0" encoding="UTF-8" standalone="no"?>
<!DOCTYPE svg PUBLIC "-//W3C//DTD SVG 1.1//EN" "http://www.w3.org/Graphics/SVG/1.1/DTD/svg11.dtd">
<svg xmlns:svg="http://www.w3.org/2000/svg" xmlns="http://www.w3.org/2000/svg" version="1.1" width="1085.76" height="510.07999" id="svg17243">
  <defs id="defs17245"/>
  <path d="m 0,510.07999 1085.76,0 L 1085.76,0 0,0 0,510.07999 z" id="path22" style="fill:#ffed00;fill-opacity:1;fill-rule:nonzero;stroke:none"/>
  <path d="m 305.12266,35.04133 0,23.85733 23.86267,0 0,-23.84 -23.86267,-0.0173 m 1.296,109.41467 -9.71333,0 0,17.384 43.79866,0 0,-17.384 -10.22266,0 0,-71.75333 -35.45067,0 0,17.384 11.588,0 0,54.36933 m -166.24133,0 -9.71587,0 0,17.384 44.8252,0 0,-17.384 -11.24933,0 0,-28.8 c 0,-14.65867 9.204,-23.51867 22.15467,-23.51867 2.388,0 5.11333,0.33734 7.67066,0.85067 L 195.396,71.68666 c -2.55467,-0.51733 -4.94534,-1.024 -7.84134,-1.024 -13.63333,0 -21.984,7.496 -25.564,22.496 l -0.34133,0 c 1.196,-8.352 1.53333,-14.31866 1.53333,-20.456 l -34.5936,0 0,17.384 11.58827,0 0,54.36934 M 38.395332,41.47333 l 0,17.38 12.783867,0 0,85.60667 -10.738533,0 0,17.37867 49.085332,0 0,-17.37867 -13.466667,0 0,-33.06533 36.254669,0 0,-18.40801 -36.254669,0 0,-34.13333 28.125599,0 -0.007,8.13333 20.45266,0 0.003,-25.51333 -86.237468,0 M 954.57943,292.96 l -8.69333,0 0,17.38399 42.77867,0 0,-17.38399 -10.224,0 0,-29.65467 c 0,-13.464 6.30533,-23.688 20.78933,-23.688 9.0333,0 15.5133,4.42933 15.5133,16.70133 l 0,36.64134 -9.7173,0 0,17.38399 43.7973,0 0,-17.38399 -10.224,0 0,-39.02534 c 0,-21.30533 -9.7133,-34.76933 -30.848,-34.76933 -15.5053,0 -26.41463,8.69333 -30.84663,20.452 l -0.33867,0 c 1.35867,-6.47867 1.35867,-12.272 1.35867,-18.40933 l -34.93467,0 0,17.384 11.58933,0 0,54.368 m -157.97466,-71.74934 -12.10133,0 0,17.384 12.10133,0 0,49.936 c 0,15.68 9.37467,23.86133 26.92667,23.86133 5.79466,0 11.93066,-1.19333 20.792,-4.26399 l 0.0413,-16.872 c -4.43467,1.708 -7.53867,2.72933 -10.776,2.72933 -9.88267,0 -13.12133,-3.07067 -13.12133,-15.68 l 0,-39.71067 19.932,0 0,-17.384 -19.932,0 0,-19.768 -23.86267,1.35867 0,18.40933 m -45.51067,51.3 c 0,16.36267 -8.33866,22.49734 -17.88266,22.49734 -9.372,0 -13.12267,-5.45334 -13.12267,-10.73734 0,-7.672 4.93067,-11.76 24.36,-11.76 l 6.64533,0 z m 32.04267,20.45067 -10.05733,0 c 0.34133,-12.612 0.85333,-24.884 0.85333,-39.53867 0,-25.90533 -13.96267,-34.256 -37.82267,-34.256 -15.84933,0 -29.82533,5.96267 -35.61733,9.20134 l 0,22.66666 20.45067,0 0,-11.92933 c 4.09067,-1.53333 11.416,-2.55467 14.82533,-2.55467 11.25067,0 15.66667,3.57867 15.66667,17.04267 l 0,4.25867 c -17.38534,0 -28.276,0.85333 -37.30933,4.09333 -9.37467,3.40667 -17.896,11.75733 -17.896,24.53733 0,13.97867 9.71333,25.90667 29.828,25.90667 14.99466,0 21.96666,-6.30533 27.93466,-19.76933 l 0.33867,0 c -0.85467,3.40933 -1.192,6.476 -1.192,12.272 l 0,5.45333 29.99733,0 0,-17.384 m -147.09733,-10e-4 -9.716,0 0,17.38399 44.82267,0 0,-17.38399 -11.244,0 0,-28.8 c 0,-14.65867 9.20266,-23.52134 22.15333,-23.52134 2.38533,0 5.11467,0.344 7.672,0.85334 l 1.53067,-21.30534 c -2.55734,-0.508 -4.94534,-1.02133 -7.84,-1.02133 -13.63334,0 -21.98267,7.49733 -25.56267,22.49733 l -0.34133,0 c 1.18933,-8.35066 1.53333,-14.31733 1.53333,-20.45466 l -34.59867,0 0,17.384 11.59067,0 0,54.368 m -119.53733,17.38399 41.756,0 0,-17.38399 -8.18133,0 0,-27.95067 19.09066,21.30533 c 2.55467,2.72534 4.94267,4.772 7.5,6.304 l 0,0.34134 -9.37466,0 0,17.38399 47.37733,0 0,-17.38399 -9.88534,0 -29.82266,-32.21067 27.77866,-22.15867 7.84,0 0,-17.37866 -45.33466,0 0,17.37866 12.27067,0 0,0.34267 c -1.36534,0.51333 -2.38534,1.196 -3.57867,2.04533 l -23.86133,18.23867 0,-79.93333 -37.496,0 0,17.38533 13.63733,0 0,96.29067 -9.716,0 0,17.38399 m -32.836,-43.11866 c 0,16.01733 -5.10267,25.73467 -19.75733,25.73467 -14.656,0 -19.75467,-9.71734 -19.75467,-25.73467 0,-16.18933 5.09867,-28.63067 19.75467,-28.63067 14.65466,0 19.75733,9.54267 19.75733,28.63067 m 25.90533,-0.51067 c 0,-31.016 -15.66666,-47.54933 -45.66266,-47.54933 -29.144,0 -45.66,21.988 -45.66,47.54933 0,30.33867 17.2,45.676 45.66,45.676 28.46,0 45.66266,-19.08933 45.66266,-45.676 m -139.85466,43.62933 42.77733,0 0,-17.38399 -10.22266,0 0,-39.02534 c 0,-21.30533 -9.71467,-34.76933 -30.85067,-34.76933 -15.676,0 -25.564,7.668 -29.82267,20.11067 l -0.34133,0 c -2.388,-13.29467 -11.588,-20.11067 -26.24666,-20.11067 -14.82667,0 -25.90534,7.15867 -30.85067,20.11067 l -0.33867,0 c 1.36267,-6.13734 1.36267,-11.932 1.36267,-18.064 l -34.93867,0 0,17.37866 11.592,0 0,54.36934 -9.71733,0 0,17.38399 43.80133,0 0,-17.38399 -10.22533,0 0,-29.656 c 0,-13.46267 6.30533,-23.688 18.91867,-23.688 9.03333,0 15.508,4.43066 15.508,16.70133 l 0,36.64267 -8.692,0 0,17.38399 42.77733,0 0,-17.38399 -10.22534,0 0,-29.656 c 0,-14.312 7.32534,-23.688 18.91734,-23.688 9.03333,0 15.50933,4.43066 15.50933,16.70133 l 0,36.64267 -8.692,0 0,17.38399 M 121.13746,248.82133 c 0,32.72267 -11.4312,44.13867 -30.598929,44.13867 l -14.4864,0 0,-84.53334 14.1452,0 c 19.508929,0 30.940129,9.888 30.940129,40.39467 m 26.92654,-0.684 C 148.064,210.644 128.12546,191.044 94.118798,191.044 l -55.732399,0 0,17.38266 12.780266,0 0,84.53334 -12.780266,0 0,17.38399 57.094799,0 c 32.644262,0 52.582802,-25.22266 52.582802,-62.20666 M 374.01866,105.72267 c 0.35866,-3.764 0.89466,-8.38268 5.00666,-13.17334 3.21734,-3.592 7.32934,-5.64533 12.876,-5.64533 14.66267,0 17.16267,14.03067 17.16267,18.81867 l -35.04533,0 z m 34.52933,29.54933 c -0.94,4.676 -4.792,12.53467 -17.18667,12.53467 -5.36133,0 -11.264,-2.05334 -14.83866,-8.72267 -3.21734,-6.15867 -3.39867,-14.54267 -3.39867,-18.81867 l 60.43733,0 c 0,-7.35733 0,-25.66267 -10.73066,-37.46667 -7.684,-8.55466 -19.488,-12.148 -31.64267,-12.148 -9.48133,0 -20.74667,1.88134 -30.04133,11.29067 -5.72134,5.81733 -13.19067,15.57066 -13.19067,35.072 0,31.48 15.15467,46.88 43.58667,46.88 6.08,0 22.88666,-0.17466 34.33066,-13.68933 4.42667,-5.36533 6.37334,-10.98 6.85467,-14.908 l -24.18,-0.024 m 467.67599,118.97866 c 0.36,-3.764 0.89333,-8.38533 5.00533,-13.17333 3.21867,-3.592 7.33067,-5.64533 12.87733,-5.64533 14.65867,0 17.16134,14.02933 17.16134,18.81866 l -35.044,0 z m 34.528,29.548 c -0.94,4.67734 -4.79334,12.53867 -17.184,12.53867 -5.368,0 -11.264,-2.05733 -14.844,-8.72533 -3.21334,-6.16 -3.39334,-14.544 -3.39334,-18.82 l 60.43467,0 c 0,-7.356 0,-25.66134 -10.72933,-37.46534 -7.68667,-8.55466 -19.48934,-12.148 -31.64534,-12.148 -9.47866,0 -20.74266,1.88 -30.04133,11.29067 -5.72133,5.816 -13.188,15.568 -13.188,35.072 0,31.47867 15.15334,46.88 43.584,46.88 6.08267,0 22.89067,-0.17467 34.33067,-13.69067 4.42666,-5.36 6.37733,-10.97866 6.856,-14.90666 l -24.18,-0.0253 m -726.29465,-29.548 c 0.35867,-3.764 0.89467,-8.38533 5.00667,-13.17333 3.21733,-3.592 7.32933,-5.64533 12.87599,-5.64533 14.66267,0 17.16267,14.02933 17.16267,18.81866 l -35.04533,0 z m 34.52933,29.548 c -0.94,4.67734 -4.792,12.53867 -17.18667,12.53867 -5.36133,0 -11.26399,-2.05733 -14.83866,-8.72533 -3.21733,-6.16 -3.39867,-14.544 -3.39867,-18.82 l 60.43733,0 c 0,-7.356 0,-25.66134 -10.73066,-37.46534 -7.684,-8.55466 -19.488,-12.148 -31.64667,-12.148 -9.47733,0 -20.74133,1.88 -30.03733,11.29067 -5.72133,5.816 -13.19067,15.568 -13.19067,35.072 0,31.47867 15.15467,46.88 43.58667,46.88 6.08,0 22.88666,-0.17467 34.33066,-13.69067 4.42667,-5.36 6.37334,-10.97866 6.85467,-14.90666 l -24.18,-0.0253 m 7.46533,-178.07599 c 0.35867,-3.764 0.89467,-8.38268 5.00667,-13.17334 3.21733,-3.592 7.32933,-5.64533 12.876,-5.64533 14.66,0 17.16267,14.03067 17.16267,18.81867 l -35.04534,0 z m 34.52934,29.54933 c -0.94,4.676 -4.79067,12.53467 -17.18667,12.53467 -5.36133,0 -11.264,-2.05334 -14.83867,-8.72267 -3.21733,-6.15867 -3.39733,-14.54267 -3.39733,-18.81867 l 60.43733,0 c 0,-7.35733 0,-25.66267 -10.732,-37.46667 -7.68666,-8.55466 -19.488,-12.148 -31.64666,-12.148 -9.47734,0 -20.74134,1.88134 -30.036,11.29067 -5.72134,5.81733 -13.192,15.57066 -13.192,35.072 0,31.48 15.15466,46.88 43.58666,46.88 6.08,0 22.88667,-0.17466 34.33067,-13.68933 4.424,-5.36533 6.37333,-10.98 6.856,-14.908 l -24.18133,-0.024" id="path54" style="fill:#0ba1e2;fill-opacity:1;fill-rule:nonzero;stroke:none"/>
  <path d="m 433.70932,474.78412 615.11598,0 0,-134.16133 -615.11598,0 0,134.16133 z" id="path56" style="fill:#e5007d;fill-opacity:1;fill-rule:nonzero;stroke:none"/>
  <path d="m 832.53331,385.09719 13.33067,0 0.003,-16.6332 -56.21334,0 0,11.3332 8.33067,0 0,55.79894 -6.99733,0 0,11.33333 31.99466,0 0,-11.33333 -8.77333,0 0,-21.55467 23.62533,0 0,-11.9948 -23.62533,0 0,-22.24947 18.33067,0 -0.005,5.3 m 84.15733,21.36667 c 0,21.52027 -7.51866,29.03067 -20.128,29.03067 l -9.52666,0 0,-55.5948 9.308,0 c 12.828,0 20.34666,6.49906 20.34666,26.56413 m 17.70534,-0.44787 c 0,-24.66146 -13.11467,-37.55066 -35.47867,-37.55066 l -36.652,0 0,11.4344 8.404,0 0,55.5948 -8.404,0 0,11.43239 37.54933,0 c 21.46667,0 34.58134,-16.58813 34.58134,-40.91093 m 46.844,-0.77346 c 8.17866,0 12.44266,-4.93334 12.44266,-12.8932 0,-8.06934 -4.82133,-12.4412 -12.66666,-12.4412 l -8.636,0 0,25.3344 8.86,0 z m -25.22134,-25.3344 -7.73733,0 0,-11.43214 32.39867,0 c 18.94266,0 28.69465,7.84667 28.69465,23.20134 0,14.68546 -10.42665,24.99746 -26.00799,24.99746 l -10.98666,0 0,18.83334 7.73733,0 0,11.43439 -31.836,0 0,-11.43439 7.73733,0 0,-55.6" id="path62" style="fill:#ffffff;fill-opacity:1;fill-rule:nonzero;stroke:none"/>
</svg>