<?xml version="1.0" encoding="UTF-8" standalone="no"?>
<!-- Created with Inkscape (http://www.inkscape.org/) -->
<svg xmlns:dc="http://purl.org/dc/elements/1.1/" xmlns:cc="http://creativecommons.org/ns#" xmlns:rdf="http://www.w3.org/1999/02/22-rdf-syntax-ns#" xmlns:svg="http://www.w3.org/2000/svg" xmlns="http://www.w3.org/2000/svg" xmlns:sodipodi="http://sodipodi.sourceforge.net/DTD/sodipodi-0.dtd" xmlns:inkscape="http://www.inkscape.org/namespaces/inkscape" version="1.0" width="566.92944" height="127.05661" id="svg1983" inkscape:version="0.47 r22583" sodipodi:docname="Z2Z.svg">
  <metadata id="metadata11">
    <rdf:RDF>
      <cc:Work rdf:about="">
        <dc:format>image/svg+xml</dc:format>
        <dc:type rdf:resource="http://purl.org/dc/dcmitype/StillImage"/>
      </cc:Work>
    </rdf:RDF>
  </metadata>
  <sodipodi:namedview pagecolor="#ffffff" bordercolor="#666666" borderopacity="1" objecttolerance="10" gridtolerance="10" guidetolerance="10" inkscape:pageopacity="0" inkscape:pageshadow="2" inkscape:window-width="1280" inkscape:window-height="1004" id="namedview9" showgrid="false" inkscape:zoom="0.89647062" inkscape:cx="283.46472" inkscape:cy="57.499599" inkscape:window-x="-8" inkscape:window-y="-8" inkscape:window-maximized="1" inkscape:current-layer="svg1983"/>
  <defs id="defs1985">
    <inkscape:perspective sodipodi:type="inkscape:persp3d" inkscape:vp_x="0 : 81.248032 : 1" inkscape:vp_y="0 : 1000 : 0" inkscape:vp_z="602.36218 : 81.248032 : 1" inkscape:persp3d-origin="301.18109 : 54.165354 : 1" id="perspective13"/>
  </defs>
  <g id="layer1" transform="translate(-17.716373,-11.69102)">
    <g transform="matrix(3.543307e-5,0,0,3.543307e-5,5.462343e-4,-6.025515)" style="fill-rule:evenodd" id="Layer_x0020_1">
      <g id="_89729424">
        <path d="m 15949500,4085820 c 258030,0 503370,-204070 544270,-461180 43470,-273390 -145940,-473350 -412100,-473350 -241680,0 -484250,212200 -523830,461150 -41530,261180 129490,473380 391660,473380 z m -2267880,-44910 1474550,0 109730,-726370 -680900,0 70890,-469300 610840,0 109730,-726350 -610910,0 64700,-428540 680900,0 109700,-726340 -1474580,0 -464650,3076900 z m -153530,0 -467740,-1591510 858520,-1485390 -836490,0 -633570,1309940 193900,-1309940 -793680,0 -464680,3076900 793750,0 213180,-1411920 284800,1411920 852010,0 z m -4528050,0 762580,0 136180,-901820 c 43760,-289810 51890,-575430 76180,-865140 l 332350,1766960 762550,0 464680,-3076900 -762580,0 -118310,783490 c -53610,355010 -48280,705940 -70790,1060990 l -363360,-1844480 -754800,0 -464680,3076900 z m -1400360,0 109640,-726370 -595290,0 354980,-2350530 -793680,0 -464680,3076900 1389030,0 z m -3726490,0 1474580,0 109700,-726370 -680860,0 70880,-469300 610840,0 109700,-726350 -610910,0 64730,-428540 680870,0 109730,-726340 -1474580,0 -464680,3076900 z m -315970,0 464610,-3076900 -793680,0 -464680,3076900 793750,0 z M 1642530,1731210 c 361800,0 353830,465190 303310,799840 -43750,289710 -177520,763090 -539960,767140 l 236650,-1566980 0,0 z m -1142550,2309700 692590,0 c 482430,0 1354240,-130570 1568700,-1550720 C 2901720,1559780 2505370,964010 1602750,964010 l -638090,0 -464680,3076900 0,0 z m 8179050,0 391470,-2513670 -793680,0 -391540,2513670 793750,0 z" style="fill:#000000;fill-opacity:1" id="_47141144"/>
        <polygon points="9230140,500000 9230140,500000 7697260,963340 9094490,1374000 " style="fill:#dc0000;fill-opacity:1" id="_48064328"/>
      </g>
    </g>
  </g>
</svg>